<svg width="151" height="29" fill="none" xmlns="http://www.w3.org/2000/svg"><path d="M7.6 23.58c-.654 0-1.153-.177-1.498-.53-.344-.352-.516-.856-.516-1.51v-7.304l.826 2.241L.316 8.04a1.701 1.701 0 0 1-.31-1.133c.035-.42.207-.781.517-1.083.31-.303.75-.454 1.317-.454.414 0 .784.101 1.111.303.345.201.672.52.982.957l4.133 5.817h-.827l4.133-5.817c.327-.454.646-.773.956-.957a2.123 2.123 0 0 1 1.136-.303c.551 0 .982.143 1.292.429.31.268.473.612.49 1.032.018.403-.129.823-.439 1.26L8.79 16.476l.8-2.241v7.303c0 1.36-.662 2.04-1.988 2.04ZM21.133 23.63c-1.36 0-2.548-.26-3.564-.781a5.575 5.575 0 0 1-2.325-2.242c-.551-.973-.827-2.123-.827-3.45 0-.99.155-1.88.465-2.67.31-.789.758-1.46 1.343-2.014a5.85 5.85 0 0 1 2.144-1.285c.827-.302 1.748-.453 2.764-.453 1.36 0 2.54.26 3.539.78 1.016.521 1.8 1.26 2.35 2.217.569.957.853 2.099.853 3.425 0 1.008-.164 1.906-.49 2.695-.31.789-.758 1.469-1.344 2.04-.585.57-1.3 1.007-2.144 1.31-.826.285-1.748.428-2.764.428Zm0-2.846c.569 0 1.06-.135 1.473-.403.413-.269.74-.663.981-1.184.241-.537.362-1.217.362-2.04 0-1.226-.259-2.124-.775-2.695-.517-.587-1.197-.881-2.04-.881-.552 0-1.043.126-1.473.378-.413.251-.74.646-.982 1.183-.223.52-.335 1.192-.335 2.015 0 1.226.258 2.14.774 2.745.517.588 1.189.882 2.015.882ZM34.923 23.63c-1.067 0-1.954-.193-2.66-.58-.706-.386-1.231-.965-1.576-1.737-.327-.79-.49-1.763-.49-2.922V12.7c0-.638.163-1.116.49-1.435.345-.32.827-.479 1.447-.479.62 0 1.102.16 1.446.479.345.319.517.797.517 1.435v5.793c0 .739.155 1.293.465 1.662.31.353.8.529 1.472.529.74 0 1.343-.252 1.808-.756.482-.52.724-1.2.724-2.04V12.7c0-.638.163-1.116.49-1.435.345-.32.827-.479 1.447-.479.637 0 1.12.16 1.446.479.345.319.517.797.517 1.435v8.941c0 1.293-.629 1.94-1.886 1.94-.62 0-1.093-.169-1.42-.504-.328-.336-.491-.815-.491-1.436v-1.687l.387.982c-.379.856-.921 1.52-1.627 1.99s-1.541.705-2.506.705ZM47.499 23.58c-.655 0-1.154-.169-1.498-.504-.345-.336-.517-.815-.517-1.436V12.7c0-.622.164-1.092.49-1.411.345-.336.819-.504 1.422-.504.62 0 1.093.168 1.42.504.327.319.49.789.49 1.41v1.31h-.257c.206-1.008.663-1.788 1.369-2.342s1.618-.865 2.738-.932c.43-.034.757.075.981.327.241.235.37.63.388 1.184.034.52-.078.932-.336 1.234-.241.302-.654.487-1.24.554l-.594.05c-.982.084-1.713.361-2.196.832-.465.47-.697 1.15-.697 2.04v4.684c0 .621-.172 1.1-.517 1.436-.327.335-.809.503-1.446.503ZM58.325 23.58c-.586 0-1.034-.16-1.344-.48-.31-.318-.465-.763-.465-1.334V7.184c0-.571.164-1.016.491-1.335.345-.32.81-.479 1.395-.479.517 0 .921.101 1.214.303.31.184.594.512.853.982l5.966 10.628h-.878l5.967-10.628c.258-.47.534-.798.827-.982.31-.202.714-.303 1.214-.303.585 0 1.033.16 1.343.479.327.319.49.764.49 1.335v14.582c0 .57-.154 1.016-.464 1.335-.31.319-.758.478-1.343.478-.586 0-1.042-.16-1.37-.478-.31-.32-.465-.764-.465-1.335v-10.2h.569l-4.805 8.387c-.206.319-.43.562-.671.73-.224.151-.526.227-.904.227-.38 0-.69-.084-.93-.252a2.384 2.384 0 0 1-.646-.705l-4.856-8.412h.62v10.225c0 .57-.155 1.016-.465 1.335-.293.319-.74.478-1.343.478ZM85.343 23.63c-1.498 0-2.79-.26-3.875-.781-1.067-.537-1.894-1.285-2.48-2.242-.568-.973-.852-2.115-.852-3.425 0-1.276.276-2.392.827-3.35a5.781 5.781 0 0 1 2.299-2.266c.998-.554 2.126-.831 3.383-.831.913 0 1.74.15 2.48.453.74.286 1.378.705 1.912 1.26.533.537.938 1.2 1.214 1.989.275.772.413 1.637.413 2.594 0 .32-.103.563-.31.73-.207.152-.508.227-.904.227h-8.11v-1.964h6.508l-.413.352c0-.688-.103-1.259-.31-1.712-.207-.47-.508-.823-.904-1.058-.379-.235-.852-.353-1.42-.353-.638 0-1.18.143-1.628.428-.448.286-.792.697-1.033 1.235-.241.537-.362 1.183-.362 1.939v.201c0 1.276.302 2.217.904 2.821.62.605 1.533.907 2.738.907.414 0 .887-.05 1.421-.151.534-.101 1.033-.26 1.498-.479.396-.185.75-.243 1.06-.176.31.05.55.184.722.403.173.218.267.47.285.755.034.286-.026.571-.181.857-.155.268-.413.495-.775.68a7.1 7.1 0 0 1-1.99.705 9.35 9.35 0 0 1-2.117.252ZM97.22 23.63c-.93 0-1.765-.177-2.505-.53-.74-.352-1.318-.83-1.73-1.435a3.531 3.531 0 0 1-.62-2.04c0-.907.24-1.62.723-2.14.482-.538 1.265-.916 2.35-1.134 1.085-.235 2.523-.352 4.314-.352h1.369v1.964h-1.343c-.879 0-1.593.05-2.144.151-.534.084-.922.235-1.163.453-.224.219-.335.52-.335.907 0 .47.163.856.49 1.159.345.302.835.453 1.473.453.5 0 .938-.11 1.317-.327a2.57 2.57 0 0 0 .93-.932c.224-.403.336-.857.336-1.36V15.57c0-.738-.172-1.259-.517-1.561-.344-.32-.93-.479-1.756-.479-.465 0-.973.06-1.524.177-.534.1-1.128.277-1.783.529-.379.167-.714.21-1.007.125a1.271 1.271 0 0 1-.672-.503 1.513 1.513 0 0 1-.232-.806c0-.302.086-.588.258-.856.172-.286.457-.496.853-.63.809-.32 1.567-.537 2.273-.655a12.48 12.48 0 0 1 1.989-.176c1.326 0 2.41.193 3.254.58.861.369 1.507.948 1.938 1.737.43.772.645 1.771.645 2.997v5.591c0 .621-.155 1.1-.465 1.436-.31.335-.757.503-1.343.503-.585 0-1.042-.168-1.369-.503-.31-.336-.465-.815-.465-1.436v-.932l.181.151a3.188 3.188 0 0 1-.672 1.486 3.42 3.42 0 0 1-1.265.957c-.517.218-1.111.328-1.783.328ZM111.883 23.63c-1.533 0-2.678-.412-3.436-1.234-.757-.84-1.136-2.082-1.136-3.728V7.31c0-.638.164-1.117.491-1.436.344-.336.835-.504 1.472-.504.62 0 1.094.168 1.421.504.344.32.516.798.516 1.436v11.207c0 .688.147 1.2.439 1.536.31.32.715.479 1.214.479.138 0 .267-.009.388-.025.12-.017.25-.026.387-.026.276-.033.465.05.569.252.12.185.18.563.18 1.134 0 .503-.103.89-.309 1.158-.207.252-.526.42-.956.504-.172.017-.37.034-.594.05-.224.034-.439.05-.646.05ZM122.233.791a1.845 1.845 0 0 0-.49.436l-.196.28v6.978l.17.435c.614 1.568 1.934 2.608 3.521 2.77l.425.046.033 7.869.033 7.869.143.234c.085.13.275.319.425.423.242.169.327.188.771.188.438 0 .529-.02.758-.175.137-.098.327-.286.418-.423l.163-.24.033-7.87.033-7.875.424-.045c1.627-.163 3.052-1.327 3.548-2.881.144-.449.144-.52.144-3.876v-3.42l-.176-.254c-.288-.404-.588-.573-1.092-.599-.535-.026-.921.15-1.215.566l-.196.28-.032 1.632-.033 1.639h-1.372l-.033-1.633c-.033-1.606-.033-1.632-.196-1.866-.274-.41-.608-.592-1.104-.618-.536-.026-.921.15-1.215.566l-.196.28-.033 1.632-.033 1.639h-1.372l-.033-1.633-.032-1.632-.177-.253c-.287-.404-.588-.573-1.091-.599-.359-.02-.483.007-.725.13Zm7.579 6.946c0 .396-.32.832-.784 1.08-.209.11-.392.123-1.96.123-1.647 0-1.745-.007-1.993-.143-.444-.234-.751-.67-.751-1.06v-.195h5.488v.195ZM135.777.791a1.845 1.845 0 0 0-.49.436l-.196.28-.033 7.25-.032 7.252-.549.162c-1.372.39-2.398 1.21-2.973 2.361-.503 1.021-.588 1.444-.588 2.926 0 1.086.02 1.347.137 1.821.641 2.517 2.058 4.234 4.038 4.89.386.124.595.15 1.34.15.744 0 .954-.026 1.339-.15 1.98-.656 3.398-2.373 4.038-4.89.118-.474.137-.735.137-1.82 0-1.093-.019-1.34-.144-1.789-.49-1.801-1.659-2.998-3.417-3.499l-.549-.162-.032-7.245-.033-7.25-.176-.254c-.288-.404-.588-.573-1.092-.599-.359-.02-.483.007-.725.13Zm1.941 18.066c.732.247 1.208.813 1.391 1.632.125.566.053 1.984-.13 2.563-.34 1.066-.987 1.964-1.686 2.315-.438.22-1.281.227-1.712.006-.745-.383-1.346-1.216-1.712-2.354-.13-.429-.15-.618-.15-1.56 0-1.048.007-1.08.19-1.483.326-.703.993-1.158 1.868-1.275 0 0 1.536.026 1.941.156ZM148.375.765c-.837.436-2.13 1.62-2.927 2.667-1.987 2.633-3.143 6.353-3.411 11.003-.098 1.704-.052 1.957.399 2.406.437.436.555.455 3.038.455h2.13v10.061l.15.273c.078.156.274.37.431.488.255.182.32.201.784.201.445 0 .536-.02.765-.175.137-.098.327-.286.418-.423l.163-.24V1.512l-.176-.253c-.288-.41-.588-.573-1.091-.599-.327-.013-.49.007-.673.104Zm-.771 9.118V14.5H144.84l.046-.67c.117-1.788.555-3.947 1.124-5.54.378-1.054 1.398-3.025 1.561-3.025.02 0 .033 2.075.033 4.618Z" fill="#fff"/></svg>